<?xml version="1.0" encoding="UTF-8"?>
<!DOCTYPE svg PUBLIC "-//W3C//DTD SVG 1.1//EN" "http://www.w3.org/Graphics/SVG/1.1/DTD/svg11.dtd">
<svg xmlns="http://www.w3.org/2000/svg" version="1.1" width="169px" height="192px" style="shape-rendering:geometricPrecision; text-rendering:geometricPrecision; image-rendering:optimizeQuality; fill-rule:evenodd; clip-rule:evenodd" xmlns:xlink="http://www.w3.org/1999/xlink">
<g><path style="opacity:0.987" fill="#497ea8" d="M 79.5,-0.5 C 82.5,-0.5 85.5,-0.5 88.5,-0.5C 94.8307,3.33739 99.664,8.67072 103,15.5C 107.393,25.0753 110.227,35.0753 111.5,45.5C 114.601,45.3083 117.601,44.6416 120.5,43.5C 124.184,31.99 131.517,28.6566 142.5,33.5C 145.666,38.5314 150.333,40.698 156.5,40C 162.181,41.1937 166.181,44.3604 168.5,49.5C 168.5,52.8333 168.5,56.1667 168.5,59.5C 166.649,63.8911 164.482,68.2245 162,72.5C 155.752,80.5875 148.919,88.2542 141.5,95.5C 147.517,101.683 153.351,108.017 159,114.5C 163.242,119.658 166.408,125.325 168.5,131.5C 168.5,134.833 168.5,138.167 168.5,141.5C 163.415,149.217 156.082,152.551 146.5,151.5C 134.856,151.271 123.689,148.938 113,144.5C 109.206,149.956 109.873,154.623 115,158.5C 118.577,171.079 114.077,177.745 101.5,178.5C 98.118,183.882 93.7847,188.215 88.5,191.5C 85.5,191.5 82.5,191.5 79.5,191.5C 74.9036,188.739 71.0703,185.073 68,180.5C 61.9756,169.292 57.809,157.459 55.5,145C 47.4207,147.572 39.0873,149.572 30.5,151C 24.8333,151.667 19.1667,151.667 13.5,151C 7.20609,150.035 2.53942,146.868 -0.5,141.5C -0.5,138.167 -0.5,134.833 -0.5,131.5C 1.35703,127.151 3.5237,122.818 6,118.5C 12.2768,110.387 19.1101,102.72 26.5,95.5C 24.0165,89.9868 20.0165,88.3201 14.5,90.5C 6.21241,89.5458 1.54574,84.8792 0.5,76.5C 1.10534,73.6838 2.10534,71.0172 3.5,68.5C 1.83603,65.5176 0.502701,62.5176 -0.5,59.5C -0.5,56.1667 -0.5,52.8333 -0.5,49.5C 1.26762,47.4922 2.93429,45.3256 4.5,43C 6.83333,42 9.16667,41 11.5,40C 18.5,39.3333 25.5,39.3333 32.5,40C 40.5291,41.8412 48.5291,43.6746 56.5,45.5C 58.3139,31.8925 62.8139,19.2258 70,7.5C 72.7348,4.23079 75.9014,1.56412 79.5,-0.5 Z M 102.5,42.5 C 90.1667,38.5 77.8333,38.5 65.5,42.5C 67.3117,32.2123 70.8117,22.5456 76,13.5C 78.1122,10.716 80.7788,8.71599 84,7.5C 88.9594,9.79269 92.6261,13.4594 95,18.5C 98.6117,26.1677 101.112,34.1677 102.5,42.5 Z M 47.5,52.5 C 38.0713,61.3619 31.7379,72.0285 28.5,84.5C 27.7109,84.2172 27.0442,83.7172 26.5,83C 29.7546,75.021 27.7546,68.6877 20.5,64C 16.8983,62.6438 13.3983,62.1438 10,62.5C 5.03134,51.4739 8.698,46.4739 21,47.5C 30.1228,47.8255 38.9561,49.4921 47.5,52.5 Z M 139.5,84.5 C 136.262,72.0285 129.929,61.3619 120.5,52.5C 121.117,52.3893 121.617,52.056 122,51.5C 129.701,60.3436 137.701,60.6769 146,52.5C 147.009,50.9751 147.509,49.3084 147.5,47.5C 151.41,47.2628 155.077,48.0961 158.5,50C 159.358,51.57 160.025,53.2367 160.5,55C 156.33,66.8371 149.33,76.6705 139.5,84.5 Z M 28.5,106.5 C 32.2415,118.641 38.5749,129.308 47.5,138.5C 36.7706,142.013 25.7706,143.513 14.5,143C 12.6494,142.163 10.8161,141.329 9,140.5C 7.48657,135.644 8.15324,130.978 11,126.5C 15.6725,118.825 21.5058,112.158 28.5,106.5 Z M 139.5,106.5 C 149.428,114.259 156.428,124.093 160.5,136C 160,137.5 159.5,139 159,140.5C 155.198,142.884 151.031,143.884 146.5,143.5C 137.621,142.858 128.955,141.191 120.5,138.5C 129.425,129.308 135.758,118.641 139.5,106.5 Z M 65.5,148.5 C 77.8333,152.5 90.1667,152.5 102.5,148.5C 102.5,149.5 102.5,150.5 102.5,151.5C 92.6828,153.443 88.5161,159.443 90,169.5C 90.7922,171.587 91.9588,173.421 93.5,175C 91.2665,178.901 88.0998,181.735 84,183.5C 79.0127,181.179 75.346,177.513 73,172.5C 69.3883,164.832 66.8883,156.832 65.5,148.5 Z"/></g>
<g><path style="opacity:0.997" fill="#fbf3bb" d="M 102.5,42.5 C 103.283,44.3432 103.95,46.3432 104.5,48.5C 97.9228,52.0972 91.0894,55.4305 84,58.5C 76.9106,55.4305 70.0772,52.0972 63.5,48.5C 64.0505,46.3432 64.7171,44.3432 65.5,42.5C 77.8333,38.5 90.1667,38.5 102.5,42.5 Z"/></g>
<g><path style="opacity:1" fill="#aed6ed" d="M 131.5,39.5 C 138.703,38.7037 141.036,41.7037 138.5,48.5C 133.609,51.6789 130.276,50.3455 128.5,44.5C 129.26,42.6396 130.26,40.973 131.5,39.5 Z"/></g>
<g><path style="opacity:0.996" fill="#fcf3bb" d="M 47.5,52.5 C 50.3054,52.818 52.6387,53.9847 54.5,56C 53.4704,63.156 52.4704,70.3227 51.5,77.5C 45.5257,81.6406 39.6923,85.974 34,90.5C 31.9604,88.6298 30.1271,86.6298 28.5,84.5C 31.7379,72.0285 38.0713,61.3619 47.5,52.5 Z"/></g>
<g><path style="opacity:0.997" fill="#fcf3bb" d="M 120.5,52.5 C 129.929,61.3619 136.262,72.0285 139.5,84.5C 137.873,86.6298 136.04,88.6298 134,90.5C 128.308,85.974 122.474,81.6406 116.5,77.5C 115.53,70.3227 114.53,63.156 113.5,56C 115.361,53.9847 117.695,52.818 120.5,52.5 Z"/></g>
<g><path style="opacity:1" fill="#f8f0bb" d="M 61.5,57.5 C 65.967,58.8283 70.3003,60.6617 74.5,63C 70.0843,65.9584 65.5843,68.7917 61,71.5C 61.3097,66.8932 61.4764,62.2266 61.5,57.5 Z"/></g>
<g><path style="opacity:1" fill="#f8f0bb" d="M 103.5,57.5 C 104.5,57.5 105.5,57.5 106.5,57.5C 106.524,62.2266 106.69,66.8932 107,71.5C 102.416,68.7917 97.9157,65.9584 93.5,63C 97.0879,61.3781 100.421,59.5448 103.5,57.5 Z"/></g>
<g><path style="opacity:1" fill="#fcf3bb" d="M 83.5,67.5 C 91.8514,71.7616 100.018,76.4282 108,81.5C 108.667,90.8333 108.667,100.167 108,109.5C 100.164,114.419 92.164,119.086 84,123.5C 75.836,119.086 67.836,114.419 60,109.5C 59.3333,100.167 59.3333,90.8333 60,81.5C 67.8464,76.668 75.6798,72.0013 83.5,67.5 Z"/></g>
<g><path style="opacity:1" fill="#afd7ee" d="M 11.5,71.5 C 17.3365,70.5179 20.1698,72.8513 20,78.5C 16.952,82.0095 13.6187,82.3428 10,79.5C 9.10929,76.5024 9.60929,73.8357 11.5,71.5 Z"/></g>
<g><path style="opacity:1" fill="#4a7ea8" d="M 80.5,79.5 C 94.5389,79.5824 100.706,86.5824 99,100.5C 92.376,112.197 83.5427,114.197 72.5,106.5C 65.129,94.3832 67.7956,85.3832 80.5,79.5 Z"/></g>
<g><path style="opacity:1" fill="#fbf2bb" d="M 50.5,87.5 C 51.6507,92.6503 51.8174,97.9836 51,103.5C 47.6421,100.642 44.1421,97.9749 40.5,95.5C 44.1654,93.1593 47.4988,90.4926 50.5,87.5 Z"/></g>
<g><path style="opacity:1" fill="#fbf3bb" d="M 116.5,87.5 C 120.148,90.1419 123.815,92.8086 127.5,95.5C 123.858,97.9749 120.358,100.642 117,103.5C 116.501,98.1771 116.334,92.8437 116.5,87.5 Z"/></g>
<g><path style="opacity:1" fill="#aed7ee" d="M 80.5,91.5 C 82.8333,91.5 85.1667,91.5 87.5,91.5C 87.5,94.1667 87.5,96.8333 87.5,99.5C 85.1667,99.5 82.8333,99.5 80.5,99.5C 80.5,96.8333 80.5,94.1667 80.5,91.5 Z"/></g>
<g><path style="opacity:0.997" fill="#fcf3bc" d="M 47.5,138.5 C 38.5749,129.308 32.2415,118.641 28.5,106.5C 30.1271,104.37 31.9604,102.37 34,100.5C 39.6923,105.026 45.5257,109.359 51.5,113.5C 52.6972,120.472 53.6972,127.472 54.5,134.5C 52.8885,136.941 50.5552,138.274 47.5,138.5 Z"/></g>
<g><path style="opacity:0.999" fill="#fbf3bb" d="M 139.5,106.5 C 135.758,118.641 129.425,129.308 120.5,138.5C 118.518,138.005 116.518,137.505 114.5,137C 113.941,136.275 113.608,135.442 113.5,134.5C 114.427,127.49 115.427,120.49 116.5,113.5C 122.474,109.359 128.308,105.026 134,100.5C 136.04,102.37 137.873,104.37 139.5,106.5 Z"/></g>
<g><path style="opacity:1" fill="#f8f1bb" d="M 60.5,119.5 C 65.1393,122.155 69.806,124.821 74.5,127.5C 70.6957,130.546 66.3624,132.212 61.5,132.5C 61.6282,128.119 61.2949,123.785 60.5,119.5 Z"/></g>
<g><path style="opacity:1" fill="#f9f1bb" d="M 106.5,119.5 C 109.489,133.49 105.155,136.157 93.5,127.5C 98.0645,125.059 102.398,122.392 106.5,119.5 Z"/></g>
<g><path style="opacity:0.997" fill="#fcf3bb" d="M 102.5,148.5 C 90.1667,152.5 77.8333,152.5 65.5,148.5C 64.7171,146.657 64.0505,144.657 63.5,142.5C 70.1298,138.892 76.9631,135.559 84,132.5C 91.0719,135.566 97.9053,138.899 104.5,142.5C 103.95,144.657 103.283,146.657 102.5,148.5 Z"/></g>
<g><path style="opacity:1" fill="#aed6ed" d="M 100.5,159.5 C 108.818,159.987 110.485,163.487 105.5,170C 97.0937,169.863 95.427,166.363 100.5,159.5 Z"/></g>
</svg>
